<svg xmlns="http://www.w3.org/2000/svg" viewBox="0 0 320 190" width="320" height="190"><rect width="320" height="190" fill="#2b3138"/><path d="M104,16 C104,34 120,38 118,50 C116,60 108,58 112,66 C118,76 138,74 140,86 C141,94 116,90 118,98 C120,106 132,104 130,110 C129,115 120,113 122,118 C124,124 132,124 128,132 C124,142 104,144 100,158 C97,168 94,168 92,174 L228,174 C226,168 223,168 220,158 C216,144 196,142 192,132 C188,124 196,124 198,118 C200,113 191,115 190,110 C188,104 200,106 202,98 C204,90 179,94 180,86 C182,74 202,76 208,66 C212,58 204,60 202,50 C200,38 216,34 216,16 Z" fill="#ffffff"/></svg>