<svg xmlns="http://www.w3.org/2000/svg" viewBox="0 0 320 190" width="320" height="190"><rect width="320" height="190" fill="#ffffff"/><text x="160" y="22" font-size="13" fill="#7a828c" text-anchor="middle" font-weight="normal" font-family="Malgun Gothic, sans-serif">인체 치수와 황금비를 겹친 비례 자</text><g stroke="#3a4450" stroke-width="1.6" fill="none"><circle cx="88" cy="46" r="9"/><path d="M88 55v46M88 101l-14 46M88 101l14 46"/><path d="M88 66l-22 20M88 66l22 20"/></g><path d="M110 37v110" stroke="#9aa3ad" stroke-dasharray="3 3"/><path d="M110 37h18M110 92h18M110 147h18" stroke="#9aa3ad"/><text x="134" y="66" font-size="11" fill="#9aa3ad" text-anchor="start" font-weight="normal" font-family="Malgun Gothic, sans-serif">배꼽 위</text><text x="134" y="122" font-size="11" fill="#9aa3ad" text-anchor="start" font-weight="normal" font-family="Malgun Gothic, sans-serif">배꼽 아래</text><rect x="196" y="40" width="86" height="20" fill="#2f5d8f"/><rect x="196" y="67" width="53" height="20" fill="#5a86b8"/><rect x="196" y="94" width="33" height="20" fill="#8fa8c4"/><rect x="196" y="121" width="20" height="20" fill="#c3cad2"/><text x="243" y="170" font-size="11" fill="#9aa3ad" text-anchor="middle" font-weight="normal" font-family="Malgun Gothic, sans-serif">1 : 1.618 로 이어지는 수열</text></svg>